{
  "accessors": [
    {
      "bufferView": 0,
      "componentType": 5126,
      "count": 510,
      "type": "VEC3"
    },
    {
      "bufferView": 1,
      "componentType": 5126,
      "count": 510,
      "type": "VEC2"
    },
    {
      "bufferView": 2,
      "componentType": 5126,
      "count": 510,
      "type": "VEC3"
    },
    {
      "bufferView": 3,
      "componentType": 5126,
      "count": 510,
      "max": [
        0.359531194,
        -0.1006459,
        0.150000006
      ],
      "min": [
        0.0604687929,
        -0.3993541,
        -0.150000006
      ],
      "type": "VEC3"
    },
    {
      "bufferView": 4,
      "componentType": 5126,
      "count": 20,
      "type": "VEC3"
    },
    {
      "bufferView": 5,
      "componentType": 5126,
      "count": 20,
      "max": [
        0.5,
        0.5,
        0.5
      ],
      "min": [
        -0.5,
        -0.5,
        -0.5
      ],
      "type": "VEC3"
    },
    {
      "bufferView": 6,
      "componentType": 5126,
      "count": 510,
      "type": "VEC2"
    },
    {
      "bufferView": 7,
      "componentType": 5126,
      "count": 510,
      "type": "VEC3"
    },
    {
      "bufferView": 8,
      "componentType": 5126,
      "count": 20,
      "type": "VEC2"
    },
    {
      "bufferView": 9,
      "componentType": 5126,
      "count": 510,
      "type": "VEC3"
    },
    {
      "bufferView": 10,
      "componentType": 5126,
      "count": 20,
      "type": "VEC3"
    },
    {
      "bufferView": 11,
      "componentType": 5126,
      "count": 510,
      "max": [
        -0.0604687929,
        -0.1006459,
        0.150000006
      ],
      "min": [
        -0.359531194,
        -0.3993541,
        -0.150000006
      ],
      "type": "VEC3"
    },
    {
      "bufferView": 12,
      "componentType": 5125,
      "count": 2940,
      "type": "SCALAR"
    },
    {
      "bufferView": 13,
      "componentType": 5125,
      "count": 2940,
      "type": "SCALAR"
    },
    {
      "bufferView": 14,
      "componentType": 5125,
      "count": 30,
      "type": "SCALAR"
    }
  ],
  "asset": {
    "generator": "SideFX Houdini",
    "version": "2.0"
  },
  "bufferViews": [
    {
      "buffer": 0,
      "byteLength": 6120
    },
    {
      "buffer": 0,
      "byteLength": 6120,
      "byteOffset": 6120
    },
    {
      "buffer": 0,
      "byteLength": 6120,
      "byteOffset": 12240
    },
    {
      "buffer": 0,
      "byteLength": 6120,
      "byteOffset": 18360
    },
    {
      "buffer": 0,
      "byteLength": 240,
      "byteOffset": 24480
    },
    {
      "buffer": 0,
      "byteLength": 240,
      "byteOffset": 24720
    },
    {
      "buffer": 0,
      "byteLength": 6120,
      "byteOffset": 24960
    },
    {
      "buffer": 0,
      "byteLength": 6120,
      "byteOffset": 31080
    },
    {
      "buffer": 0,
      "byteLength": 240,
      "byteOffset": 37200
    },
    {
      "buffer": 0,
      "byteLength": 6120,
      "byteOffset": 37440
    },
    {
      "buffer": 0,
      "byteLength": 240,
      "byteOffset": 43560
    },
    {
      "buffer": 0,
      "byteLength": 6120,
      "byteOffset": 43800
    },
    {
      "buffer": 0,
      "byteLength": 11760,
      "byteOffset": 49920
    },
    {
      "buffer": 0,
      "byteLength": 11760,
      "byteOffset": 61680
    },
    {
      "buffer": 0,
      "byteLength": 120,
      "byteOffset": 73440
    }
  ],
  "buffers": [
    {
      "byteLength": 73560,
      "uri": "cornell_v001_data.bin"
    }
  ],
  "meshes": [
    {
      "primitives": [
        {
          "attributes": {
            "COLOR_0": 4,
            "NORMAL": 10,
            "POSITION": 5,
            "TEXCOORD_0": 8
          },
          "indices": 14
        }
      ]
    },
    {
      "primitives": [
        {
          "attributes": {
            "COLOR_0": 0,
            "NORMAL": 7,
            "POSITION": 11,
            "TEXCOORD_0": 6
          },
          "indices": 13
        }
      ]
    },
    {
      "primitives": [
        {
          "attributes": {
            "COLOR_0": 9,
            "NORMAL": 2,
            "POSITION": 3,
            "TEXCOORD_0": 1
          },
          "indices": 12
        }
      ]
    }
  ],
  "nodes": [
    {
      "mesh": 0,
      "name": "cornell"
    },
    {
      "mesh": 1,
      "name": "sphere01"
    },
    {
      "mesh": 2,
      "name": "sphere02"
    }
  ],
  "scene": 0,
  "scenes": [
    {
      "name": "cornell",
      "nodes": [
        0,
        1,
        2
      ]
    }
  ]
}